<svg width="20" height="20" viewBox="0 0 20 20" fill="none" xmlns="http://www.w3.org/2000/svg">
<path d="M10 1C5.0275 1 1 5.12937 1 10.2276C1 14.3109 3.57625 17.7597 7.15375 18.9824C7.60375 19.0631 7.7725 18.7863 7.7725 18.5441C7.7725 18.3249 7.76125 17.5982 7.76125 16.8254C5.5 17.2522 4.915 16.2602 4.735 15.7412C4.63375 15.4759 4.195 14.6569 3.8125 14.4378C3.4975 14.2647 3.0475 13.838 3.80125 13.8264C4.51 13.8149 5.01625 14.4954 5.185 14.7723C5.995 16.1679 7.28875 15.7758 7.80625 15.5335C7.885 14.9337 8.12125 14.53 8.38002 14.2993C6.3775 14.0687 4.285 13.2728 4.285 9.74319C4.285 8.73969 4.63375 7.9092 5.2075 7.26326C5.1175 7.03257 4.8025 6.08674 5.2975 4.81794C5.2975 4.81794 6.05125 4.57571 7.7725 5.76377C8.49252 5.55615 9.25752 5.45234 10.0225 5.45234C10.7875 5.45234 11.5525 5.55615 12.2725 5.76377C13.9938 4.56418 14.7475 4.81794 14.7475 4.81794C15.2425 6.08674 14.9275 7.03257 14.8375 7.26326C15.4113 7.9092 15.76 8.72815 15.76 9.74319C15.76 13.2843 13.6563 14.0687 11.6538 14.2993C11.98 14.5877 12.2613 15.1414 12.2613 16.0065C12.2613 17.2407 12.25 18.2326 12.25 18.5441C12.25 18.7863 12.4188 19.0746 12.8688 18.9824C16.5322 17.7143 18.999 14.1921 19 10.2276C19 5.12937 14.9725 1 10 1Z" fill="#f0f6fc"/>
</svg>
