<svg width="40" height="40" viewBox="0 0 40 40" fill="none" xmlns="http://www.w3.org/2000/svg">
<path d="M27.125 20.375H12.875V23H27.125V20.375Z" fill="white"/>
<path d="M23.375 24.875H12.875V27.5H23.375V24.875Z" fill="white"/>
<path d="M23.7504 11.75L28.2748 12.605L32.0004 11.75L23.7504 3.5L22.6123 7.41125L23.7504 11.75Z" fill="#1967D2"/>
<path d="M27.125 15.875H12.875V18.5H27.125V15.875Z" fill="white"/>
<path d="M23.75 11.75V3.5H10.25C9.00687 3.5 8 4.50687 8 5.75V34.25C8 35.4931 9.00687 36.5 10.25 36.5H29.75C30.9931 36.5 32 35.4931 32 34.25V11.75H23.75ZM23 27.125H13.25V25.25H23V27.125ZM26.75 22.625H13.25V20.75H26.75V22.625ZM26.75 18.125H13.25V16.25H26.75V18.125Z" fill="#4285F4"/>
</svg>
