<svg width="100" height="100" viewBox="0 0 100 100" fill="none" xmlns="http://www.w3.org/2000/svg">
<rect width="100" height="100" fill="black"/>
<path d="M16.0302 37.4L10 37.4V74.6H43.7688V68.6H16.0302V37.4Z" fill="white"/>
<path d="M49.397 25H10V31H49.397C55.0251 31 57.4372 31.1741 57.4372 34.6C57.4372 38.0259 52.2111 37.4 49.799 37.4L37.7387 37.4V63H43.7688V43.8H49.397L58.192 74.6L63.6973 74.5122V68.408L55.0251 43.8C55.0251 43.8 65.8794 43.8 65.8794 34.6C65.8794 25 58.2412 25 49.397 25Z" fill="white"/>
<path d="M90 25H71.9095C71.9095 25 74.064 28.472 74.064 31.032C74.576 31.032 83.9698 31 83.9698 31V68.6H71.9095V74.6H90V25Z" fill="white"/>
</svg>
