<svg width="100" height="100" viewBox="0 0 100 100" fill="none" xmlns="http://www.w3.org/2000/svg">
<rect width="100" height="100" rx="16" fill="#010619"/>
<path d="M22.8241 40L18 40V70H45.0151V65.1613H22.8241V40Z" fill="white"/>
<path d="M49.5176 30H18V34.8387H49.5176C54.0201 34.8387 55.9497 34.9791 55.9497 37.7419C55.9497 40.5048 51.7688 40 49.8392 40L40.191 40V60.6452H45.0151V45.1613H49.5176L56.5536 70L60.9578 69.9292V65.0065L54.0201 45.1613C54.0201 45.1613 62.7035 45.1613 62.7035 37.7419C62.7035 30 56.593 30 49.5176 30Z" fill="white"/>
<path d="M82 30H67.5276C67.5276 30 69.2512 32.8 69.2512 34.8645C69.6608 34.8645 77.1759 34.8387 77.1759 34.8387V65.1613H67.5276V70H82V30Z" fill="white"/>
</svg>
