<svg width="40" height="40" viewBox="0 0 40 40" fill="none" xmlns="http://www.w3.org/2000/svg">
<mask id="mask0_2268_3402" style="mask-type:alpha" maskUnits="userSpaceOnUse" x="4" y="4" width="32" height="32">
<path d="M20 36C28.8366 36 36 28.8366 36 20C36 11.1634 28.8366 4 20 4C11.1634 4 4 11.1634 4 20C4 28.8366 11.1634 36 20 36Z" fill="black"/>
</mask>
<g mask="url(#mask0_2268_3402)">
<path d="M20 36C28.8366 36 36 28.8366 36 20C36 11.1634 28.8366 4 20 4C11.1634 4 4 11.1634 4 20C4 28.8366 11.1634 36 20 36Z" fill="black"/>
<path d="M30.5788 32.0035L16.2915 13.6H13.5996V26.3946H15.7531V16.3348L28.8883 33.3058C29.481 32.9091 30.0457 32.4738 30.5788 32.0035Z" fill="url(#paint0_linear_2268_3402)"/>
<path d="M26.5777 13.6H24.4443V26.4H26.5777V13.6Z" fill="url(#paint1_linear_2268_3402)"/>
</g>
<defs>
<linearGradient id="paint0_linear_2268_3402" x1="23.3774" y1="24.7111" x2="29.6885" y2="32.5333" gradientUnits="userSpaceOnUse">
<stop stop-color="white"/>
<stop offset="1" stop-color="white" stop-opacity="0"/>
</linearGradient>
<linearGradient id="paint1_linear_2268_3402" x1="25.511" y1="13.6" x2="25.4753" y2="23" gradientUnits="userSpaceOnUse">
<stop stop-color="white"/>
<stop offset="1" stop-color="white" stop-opacity="0"/>
</linearGradient>
</defs>
</svg>
