<svg width="40" height="40" viewBox="0 0 40 40" fill="none" xmlns="http://www.w3.org/2000/svg">
<path d="M13.8195 30.7647C13.7963 30.7237 13.7756 30.6813 13.7575 30.6378C13.6328 30.3489 13.5945 30.0301 13.6472 29.72H6.2606L17.238 10.4015L20.8419 16.737L21.8867 14.8882L18.7451 9.35385C18.5945 9.07041 18.3753 8.82922 18.1075 8.65234C17.8397 8.47546 17.5319 8.36852 17.2121 8.34131C16.893 8.35581 16.5843 8.45959 16.3213 8.64084C16.0582 8.82208 15.8513 9.07352 15.724 9.36655L4.60314 28.9193C4.43691 29.1953 4.34106 29.508 4.32404 29.8298C4.30701 30.1516 4.36932 30.4727 4.5055 30.7647C4.67652 31.0344 4.91961 31.2509 5.20726 31.3896C5.49491 31.5284 5.81565 31.5838 6.13318 31.5498H15.4477C15.1301 31.5843 14.8092 31.5291 14.5214 31.3903C14.2337 31.2515 13.9907 31.0348 13.82 30.7647H13.8195Z" fill="#00C492"/>
<path d="M35.2343 28.9188L26.0956 12.8211C25.9456 12.5347 25.726 12.2906 25.4569 12.1114C25.1878 11.9322 24.8779 11.8237 24.5558 11.7959C24.237 11.8097 23.9286 11.9128 23.6657 12.0935C23.4027 12.2742 23.1959 12.5251 23.0687 12.8177L21.8867 14.8877L22.9383 16.7371L24.5655 13.8561L33.6066 29.7195H30.1687C30.2126 29.9817 30.1879 30.2508 30.0969 30.5006C30.0778 30.5559 30.0537 30.6093 30.0251 30.6603L29.9959 30.7189C29.8091 30.9827 29.5602 31.1964 29.2712 31.3411C28.9822 31.4859 28.662 31.5572 28.3389 31.5488H33.717C34.0401 31.5575 34.3604 31.4863 34.6495 31.3415C34.9385 31.1967 35.1874 30.9828 35.374 30.7189C35.5212 30.4358 35.5862 30.117 35.5615 29.7989C35.5369 29.4807 35.4235 29.1758 35.2343 28.9188V28.9188Z" fill="#008776"/>
<path d="M29.996 30.7193L30.0253 30.6607C30.0537 30.6097 30.0775 30.5563 30.0965 30.5011C30.1875 30.2513 30.2122 29.9822 30.1683 29.72C30.1176 29.4372 30.016 29.1659 29.8685 28.9193L22.9448 16.737L21.8868 14.8882L20.8352 16.737L13.9139 28.9193C13.7795 29.1688 13.6892 29.4397 13.6469 29.72C13.5911 30.0294 13.6262 30.3483 13.7479 30.6383C13.766 30.6818 13.7867 30.7242 13.8099 30.7652C13.981 31.0348 14.2241 31.2512 14.5118 31.3898C14.7994 31.5285 15.1201 31.5839 15.4376 31.5498H28.3287C28.6534 31.5594 28.9754 31.4886 29.2662 31.3438C29.557 31.199 29.8075 30.9847 29.9955 30.7198L29.996 30.7193ZM21.8863 18.5864L28.215 29.7195H15.5606L21.8863 18.5864Z" fill="#2D4A5D"/>
</svg>
